Coordinates
version=1
nRows=12
nColumns=42
inDegrees=yes

Units are S.I. units (second, meters, Newtons, ...)
If the header above contains a line with 'inDegrees', this indicates whether rotational values are in degrees (yes) or radians (no).

endheader
time	pelvis_tilt	pelvis_list	pelvis_rotation	pelvis_tx	pelvis_ty	pelvis_tz	hip_flexion_r	hip_adduction_r	hip_rotation_r	knee_angle_r	knee_adduction_r	knee_angle_r_beta	ankle_angle_r	subtalar_angle_r	mtp_angle_r	hip_flexion_l	hip_adduction_l	hip_rotation_l	knee_angle_l	knee_adduction_l	knee_angle_l_beta	ankle_angle_l	subtalar_angle_l	mtp_angle_l	lumbar_extension	lumbar_bending	lumbar_rotation	arm_flex_r	arm_add_r	arm_rot_r	elbow_flex_r	pro_sup_r	wrist_flex_r	wrist_dev_r	arm_flex_l	arm_add_l	arm_rot_l	elbow_flex_l	pro_sup_l	wrist_flex_l	wrist_dev_l
      0.50000000	     20.58188723	     -0.24273012	      2.69706098	     -0.43471049	      0.93294410	     -0.17589269	     -5.05797421	      3.15752777	    -12.57732191	     29.41627722	     -2.94914153	      0.51341089	     13.20636347	     19.71748928	     -9.02378193	    -29.51445844	      3.03342168	     -6.34437842	     26.34000106	     -0.39402085	      0.45971974	     20.98151049	     -8.01192511	     -9.02378193	    -34.14191517	     -1.74084426	      4.52520260	      5.57043893	    -10.66301763	    -37.29492615	     24.39784324	     90.00000001	      0.00000000	      0.00000000	     -0.36386541	    -18.75743511	      2.29885037	     68.08950661	     90.00000001	      0.00000000	      0.00000000
      0.51000000	     20.68455987	      0.01513219	      2.31162855	     -0.42924557	      0.93442671	     -0.17476428	     -5.89827262	      2.82258958	    -13.06360616	     28.76411426	     -2.99942829	      0.50202850	     13.33402462	     19.90510074	     -9.01781449	    -29.51754204	      3.05574247	     -6.36448516	     27.34301364	      0.34614545	      0.47722562	     20.34202685	     -7.91987427	     -9.01781449	    -34.23237881	     -2.21525631	      4.68273771	      6.06319805	    -10.64207615	    -37.21553990	     24.61340307	     90.00000001	      0.00000000	      0.00000000	     -0.28902148	    -18.78591499	      2.22338948	     68.04042550	     90.00000001	      0.00000000	      0.00000000
      0.52000000	     20.97136250	      0.00481742	      2.51699704	     -0.42347565	      0.93608704	     -0.17415149	     -7.04907938	      2.96104098	    -16.37199258	     27.38268734	     -4.44666331	      0.47791805	     13.53633636	     25.89451750	     -8.89211525	    -29.45105649	      2.47856368	     -6.02814655	     29.04332536	      1.02673053	      0.50690165	     18.53011775	     -9.39113086	     -8.89211525	    -34.47800844	     -2.16076214	      4.42006736	      6.32169597	    -10.54791270	    -36.07038064	     25.28288299	     90.00000001	      0.00000000	      0.00000000	     -0.31902562	    -18.87093898	      1.98954379	     68.26994140	     90.00000001	      0.00000000	      0.00000000
      0.53000000	     21.18444603	      0.15313325	      2.44057979	     -0.41793312	      0.93768927	     -0.17334721	     -8.08361551	      2.78823201	    -18.19854574	     26.33101607	     -4.96462839	      0.45956293	     13.52010041	     28.84803466	     -8.78158040	    -29.33486486	      2.16511398	     -5.68539367	     30.57577321	      1.88632780	      0.53364791	     17.10048547	    -10.30196619	     -8.78158040	    -34.66989921	     -2.37940092	      4.34039419	      6.63693002	    -10.51708976	    -34.99715817	     25.87345104	     90.00000001	      0.00000000	      0.00000000	     -0.29597907	    -18.92468983	      1.84236676	     68.43768335	     90.00000001	      0.00000000	      0.00000000
      0.54000000	     21.41663078	      0.22214318	      2.43808094	     -0.41256755	      0.93934533	     -0.17262344	     -9.25122775	      2.72011863	    -19.07954450	     25.15085837	     -4.87376014	      0.43896529	     13.41204789	     29.98648035	     -8.75969737	    -29.09010851	      1.72319905	     -5.51818819	     32.33287689	      2.59313151	      0.56431516	     15.85742493	    -10.72190981	     -8.75969737	    -34.89910853	     -2.47836163	      4.24686369	      7.14011541	    -10.44016098	    -34.68820569	     26.34862650	     90.00000001	      0.00000000	      0.00000000	     -0.26722221	    -18.97343490	      1.71386054	     68.62598794	     90.00000001	      0.00000000	      0.00000000
      0.55000000	     21.60676920	      0.26887470	      2.39935565	     -0.40728401	      0.94081094	     -0.17177803	    -10.23844500	      2.74714937	    -20.61340272	     24.03112804	     -5.33884128	      0.41942231	     13.02680155	     32.52105502	     -8.71669990	    -28.71334919	      1.21428393	     -5.15116711	     34.23989194	      3.54913186	      0.59759885	     14.52679673	    -11.87936029	     -8.71669990	    -35.10050754	     -2.58280600	      4.22448496	      7.53419757	    -10.41663354	    -33.80453205	     26.95547443	     90.00000001	      0.00000000	      0.00000000	     -0.21371022	    -18.96823471	      1.49955409	     68.85209999	     90.00000001	      0.00000000	      0.00000000
      0.56000000	     21.64299609	      0.53643163	      2.47797619	     -0.40228994	      0.94204574	     -0.17152908	    -11.05605712	      2.35039318	    -21.28558855	     23.28623845	     -4.94840692	      0.40642153	     13.14310861	     33.39724580	     -8.70347509	    -28.02870752	      0.97510950	     -4.66820651	     36.24787093	      4.21867552	      0.63264469	     13.42574352	    -12.07896730	     -8.70347509	    -35.18305727	     -2.79906031	      3.96317266	      8.09457308	    -10.34128619	    -33.42549353	     27.43860206	     90.00000001	      0.00000000	      0.00000000	     -0.12222909	    -18.98713497	      1.44487708	     68.96951195	     90.00000001	      0.00000000	      0.00000000
      0.57000000	     21.53359453	      0.58859442	      2.53586541	     -0.39735648	      0.94283322	     -0.17089334	    -11.52451087	      2.32387755	    -22.86494218	     22.58352135	     -5.32090130	      0.39415680	     12.88898856	     35.62353781	     -8.64577608	    -27.01246858	      0.42146322	     -4.33893834	     38.59430468	      5.07150569	      0.67359769	     12.26980734	    -13.55915357	     -8.64577608	    -35.11496774	     -2.86153393	      3.86856740	      8.36784197	    -10.38465298	    -31.67812048	     28.25184821	     90.00000001	      0.00000000	      0.00000000	     -0.04868269	    -18.96357559	      1.20970210	     69.17409808	     90.00000001	      0.00000000	      0.00000000
      0.58000000	     21.44339057	      0.79810206	      2.70893798	     -0.39259617	      0.94368539	     -0.17083759	    -12.16752515	      2.04075674	    -23.07464217	     21.91239384	     -4.79789210	      0.38244342	     12.99627777	     35.91167347	     -8.62828342	    -25.96125496	      0.13641864	     -4.00875589	     40.78809333	      5.44652354	      0.71188652	     11.58730009	    -13.78932297	     -8.62828342	    -35.10879955	     -2.97417939	      3.59233292	      8.91553460	    -10.32541845	    -31.23512254	     28.80914327	     90.00000001	      0.00000000	      0.00000000	      0.04211986	    -18.95637566	      1.18051126	     69.38947249	     90.00000001	      0.00000000	      0.00000000
      0.59000000	     21.26971386	      0.85881989	      2.89942764	     -0.38797696	      0.94425133	     -0.17057118	    -12.63430209	      2.00724838	    -23.29599136	     21.27177479	     -4.46754369	      0.37126251	     12.93190342	     36.20983518	     -8.61018956	    -24.67544656	     -0.38056699	     -3.86378025	     43.16663028	      5.82636230	      0.75339983	     11.04242472	    -14.44651421	     -8.61018956	    -35.02622375	     -2.96032219	      3.40914142	      9.46202828	    -10.29028580	    -30.64376821	     29.41190486	     90.00000001	      0.00000000	      0.00000000	      0.14339449	    -18.93735152	      1.08654373	     69.62290947	     90.00000001	      0.00000000	      0.00000000
      0.60000000	     21.05017397	      0.86958771	      3.08284133	     -0.38338409	      0.94462624	     -0.17033259	    -12.98524706	      2.04486958	    -23.38562534	     20.75408393	     -4.18958247	      0.36222710	     12.88437746	     36.35580378	     -8.59110216	    -23.31531590	     -0.91667026	     -3.78065574	     45.40785100	      6.08993365	      0.79251651	     10.72099022	    -15.19806580	     -8.59110216	    -34.89311127	     -2.89112175	      3.25394028	      9.99260205	    -10.29284394	    -29.90398847	     30.03907350	     90.00000001	      0.00000000	      0.00000000	      0.25147965	    -18.90178709	      0.99350853	     69.82767523	     90.00000001	      0.00000000	      0.00000000
      0.61000000	     20.79200781	      0.74604060	      3.21510641	     -0.37894729	      0.94479490	     -0.16989953	    -13.16356341	      2.30727121	    -23.32324347	     20.40683764	     -4.14894456	      0.35616651	     12.84954180	     36.24591084	     -8.50366589	    -21.86178397	     -1.62281033	     -3.82727280	     47.54583737	      6.38267766	      0.82983141	     10.66717083	    -15.98436624	     -8.50366589	    -34.73521860	     -2.73937695	      3.25445562	     10.06909309	    -10.66174132	    -26.49723912	     31.14884412	     90.00000001	      0.00000000	      0.00000000	      0.40476419	    -18.76986800	      0.82766830	     69.94363242	     90.00000001	      0.00000000	      0.00000000
